<svg width="90" height="118" viewBox="0 0 90 118" fill="none" xmlns="http://www.w3.org/2000/svg">
<path d="M53.6138 19.1617V4.41174H7.11383V105.753H53.6138V91.003C44.0883 91.003 34.9528 87.2183 28.2173 80.4819C21.4818 73.7455 17.6978 64.6091 17.6978 55.0824C17.6978 45.5556 21.4818 36.4189 28.2173 29.6827C34.9528 22.9462 44.0883 19.1617 53.6138 19.1617Z" fill="#FFADED"/>
<path d="M53.6138 19.1765V91.0177C63.1394 91.0177 72.2749 87.233 79.0105 80.4966C85.746 73.7602 89.5299 64.6238 89.5299 55.0971C89.5299 45.5703 85.746 36.4336 79.0105 29.6974C72.2749 22.961 63.1394 19.1765 53.6138 19.1765Z" fill="#FFADED"/>
</svg>
